<?xml version="1.0"?>
<svg xmlns="http://www.w3.org/2000/svg" viewBox="0 0 512 512" width="512" height="512"><g id="outline"><path d="M24,312H72.855C97.026,387.63,168.091,440,248,440a183.876,183.876,0,0,0,151.879-80.286l3.551,16.661,15.648-3.336-7.621-35.769a8,8,0,0,0-7.824-6.332H368v16h21.235A167.968,167.968,0,0,1,248,424c-71.245,0-134.815-45.574-158.317-112H120a8,8,0,0,0,8-8V208a8,8,0,0,0-8-8H24a8,8,0,0,0-8,8v96A8,8,0,0,0,24,312Zm56-96v27.055l-4.422-2.211a8.006,8.006,0,0,0-7.156,0L64,243.055V216Zm-48,0H48v40a8,8,0,0,0,11.578,7.156L72,256.945l12.422,6.211A8,8,0,0,0,96,256V216h16v80H32Z"/><path d="M495.156,252.422l-16-32A8,8,0,0,0,472,216H432v-8a8,8,0,0,0-8-8h-.855C398.974,124.37,327.909,72,248,72A183.194,183.194,0,0,0,96,152.33V140.043H80V176a8,8,0,0,0,8,8,8.094,8.094,0,0,0,1.062-.07l36.114-4.832-2.125-15.86-16.493,2.208A167.3,167.3,0,0,1,248,88c71.245,0,134.815,45.574,158.317,112H344a8,8,0,0,0-8,8v80a8,8,0,0,0,8,8h17.475a23.856,23.856,0,0,0,45.051,0h26.949a23.856,23.856,0,0,0,45.051,0H488a8,8,0,0,0,8-8V256c0-.085-.055-.16-.058-.245A7.929,7.929,0,0,0,495.156,252.422ZM467.055,232l8,16H432V232ZM352,216h64v32H352Zm0,48h64v16h-9.474a23.857,23.857,0,0,0-45.052,0H352Zm32,32a8,8,0,1,1,8-8A8.011,8.011,0,0,1,384,296Zm72,0a8,8,0,1,1,8-8A8.011,8.011,0,0,1,456,296Zm22.526-16a23.857,23.857,0,0,0-45.052,0H432V264h48v16Z"/><path d="M312,256a64,64,0,1,0-64,64A64.073,64.073,0,0,0,312,256Zm-16,0a48.035,48.035,0,0,1-40,47.277V292.328a27.1,27.1,0,0,0,4.418-1.594,20.944,20.944,0,0,0,0-37.468l-17.692-8.844a4.945,4.945,0,0,1,0-8.844,11.81,11.81,0,0,1,10.532,0l7.156,3.578a8,8,0,1,0,7.156-14.312l-7.156-3.578A27.28,27.28,0,0,0,256,219.671V208.723A48.035,48.035,0,0,1,296,256Zm-96,0a48.035,48.035,0,0,1,40-47.277v10.949a27.172,27.172,0,0,0-4.418,1.594,20.944,20.944,0,0,0,0,37.468l17.692,8.844a4.945,4.945,0,0,1,0,8.844,11.81,11.81,0,0,1-10.532,0l-7.156-3.578a8,8,0,0,0-7.156,14.312l7.156,3.578a27.28,27.28,0,0,0,4.422,1.6v10.948A48.035,48.035,0,0,1,200,256Z"/></g></svg>
